<svg width="198" height="49" viewBox="0 0 198 49" fill="none" xmlns="http://www.w3.org/2000/svg">
<mask id="mask0_10_70" style="mask-type:luminance" maskUnits="userSpaceOnUse" x="0" y="0" width="198" height="49">
<path d="M198 0H0V49H198V0Z" fill="white"/>
</mask>
<g mask="url(#mask0_10_70)">
<path d="M25.083 32.5203C26.2897 31.874 27.645 31.5419 29.1395 31.5419C31.4045 31.5419 33.2982 32.3138 34.8113 33.8487L36.6864 32.0984C35.7674 31.0931 34.6535 30.3391 33.3446 29.8275C32.0357 29.3159 30.5969 29.0645 29.0281 29.0645C27.0138 29.0645 25.1851 29.4954 23.5606 30.3571C21.9269 31.2188 20.6551 32.4036 19.7269 33.9205C18.8079 35.4375 18.3438 37.134 18.3438 39.0279C18.3438 40.9218 18.8079 42.6273 19.7269 44.1352C20.6459 45.6522 21.9176 46.837 23.5421 47.6987C25.1665 48.5604 26.9859 48.9913 29.0003 48.9913C30.5783 48.9913 32.0172 48.731 33.3353 48.2103C34.6535 47.6897 35.7674 46.9268 36.6864 45.9304L34.8113 44.1801C33.2796 45.7419 31.3859 46.5229 29.1395 46.5229C27.645 46.5229 26.2897 46.1997 25.083 45.5445C23.8762 44.8982 22.9294 44.0006 22.2518 42.8606C21.5741 41.7207 21.2307 40.4461 21.2307 39.0369C21.2307 37.6276 21.5741 36.353 22.2518 35.2131C22.9201 34.0642 23.867 33.1666 25.083 32.5203Z" fill="white"/>
<path d="M38.0234 31.7123H44.9112V48.7757H47.7331V31.7123H54.6395V29.2888H38.0234V31.7123Z" fill="white"/>
<path d="M60.0685 44.3236V29.2888H57.2188V48.7757H59.8736L71.8204 33.7678V48.7757H74.6424V29.2888H71.9875L60.0685 44.3236Z" fill="white"/>
<path d="M104.606 32.5203C105.813 31.874 107.168 31.5419 108.663 31.5419C110.928 31.5419 112.822 32.3138 114.335 33.8487L116.21 32.0984C115.291 31.0931 114.177 30.3391 112.868 29.8275C111.559 29.3159 110.12 29.0645 108.552 29.0645C106.537 29.0645 104.709 29.4954 103.084 30.3571C101.45 31.2188 100.179 32.4036 99.2503 33.9205C98.3313 35.4375 97.8672 37.134 97.8672 39.0279C97.8672 40.9218 98.3313 42.6273 99.2503 44.1352C100.169 45.6522 101.441 46.837 103.065 47.6987C104.69 48.5604 106.509 48.9913 108.524 48.9913C110.102 48.9913 111.541 48.731 112.859 48.2103C114.177 47.6897 115.291 46.9268 116.21 45.9304L114.335 44.1801C112.803 45.7419 110.909 46.5229 108.663 46.5229C107.168 46.5229 105.813 46.1997 104.606 45.5445C103.4 44.8982 102.453 44.0006 101.775 42.8606C101.098 41.7207 100.754 40.4461 100.754 39.0369C100.754 37.6276 101.098 36.353 101.775 35.2131C102.453 34.0642 103.4 33.1666 104.606 32.5203Z" fill="white"/>
<path d="M118.914 48.7757H121.764V31.7123H133.451V48.7757H136.273V29.2888H118.914V48.7757Z" fill="white"/>
<path d="M152.023 30.3571C150.389 29.4954 148.569 29.0645 146.546 29.0645C144.977 29.0645 143.538 29.3159 142.229 29.8275C141.004 30.3122 139.937 31.0123 139.055 31.9279L140.8 33.8128C142.313 32.2959 144.188 31.5419 146.434 31.5419C147.929 31.5419 149.284 31.865 150.491 32.5113C151.698 33.1576 152.645 34.0552 153.322 35.1951C154 36.3351 154.343 37.6097 154.343 39.0189C154.343 40.4282 154 41.7027 153.322 42.8517C152.645 43.9916 151.698 44.8892 150.491 45.5355C149.284 46.1818 147.929 46.5049 146.434 46.5049C144.188 46.5049 142.304 45.733 140.772 44.1801L139.157 46.1907C140.02 47.0614 141.05 47.7256 142.248 48.2014C143.566 48.722 145.005 48.9823 146.583 48.9823C148.597 48.9823 150.417 48.5514 152.041 47.6897C153.666 46.828 154.928 45.6342 155.856 44.1263C156.775 42.6183 157.239 40.9129 157.239 39.0189C157.239 37.125 156.775 35.4195 155.856 33.9116C154.928 32.4126 153.656 31.2277 152.023 30.3571Z" fill="white"/>
<path d="M153.205 37.9236H145.826L144.164 39.9881H151.535L153.205 37.9236Z" fill="white"/>
<path d="M174.238 24.9802H166.199L164.547 27.0537H172.586L174.238 24.9802Z" fill="white"/>
<path d="M162.709 44.3236V29.2888H159.859V48.7757H162.505L174.452 33.7678V48.7757H177.274V29.2888H174.628L162.709 44.3236Z" fill="white"/>
<path d="M190.452 46.5226C188.958 46.5226 187.602 46.1994 186.395 45.5442C185.189 44.8979 184.242 44.0003 183.564 42.8603C182.887 41.7204 182.543 40.4458 182.543 39.0366C182.543 37.6273 182.887 36.3527 183.564 35.2128C184.242 34.0728 185.189 33.1752 186.395 32.529C187.602 31.8827 188.958 31.5506 190.452 31.5506C192.717 31.5506 194.611 32.3225 196.124 33.8574L197.999 32.1071C197.08 31.1018 195.966 30.3478 194.657 29.8362C193.348 29.3245 191.909 29.0732 190.341 29.0732C188.326 29.0732 186.498 29.5041 184.873 30.3657C183.239 31.2274 181.968 32.4123 181.039 33.9292C180.12 35.4462 179.656 37.1426 179.656 39.0366C179.656 40.9305 180.12 42.6359 181.039 44.1439C181.958 45.6609 183.23 46.8457 184.855 47.7074C186.479 48.5691 188.298 48.9999 190.313 48.9999C191.891 48.9999 193.33 48.7396 194.648 48.219C195.966 47.6984 197.08 46.9355 197.999 45.9391L196.124 44.1888C194.592 45.7416 192.698 46.5226 190.452 46.5226Z" fill="white"/>
<path d="M85.679 29.2888L76.6562 48.7488H79.701L87.2664 32.0983L94.8225 48.7488H97.8672L88.8444 29.2888H85.679Z" fill="white"/>
<path d="M31.9232 11.7587C31.9232 10.9329 32.3502 10.1968 33 9.74805C14.7131 10.0622 0 24.4866 0 42.2322C0 44.4582 0.232068 46.6394 0.677637 48.7398C0.44557 47.2498 0.324895 45.7238 0.324895 44.171C0.324895 27.2961 14.4717 13.6167 31.9232 13.6167C32.2295 13.6167 32.5266 13.6346 32.8236 13.6346C32.276 13.1858 31.9232 12.5126 31.9232 11.7587Z" fill="white"/>
<path d="M35.719 13.3564L30.6228 19.7742C30.5207 19.8999 30.5022 20.0704 30.5764 20.214L32.0431 23.1761C32.1823 23.4544 32.5815 23.4993 32.7764 23.2479L39.1908 15.1606C39.2929 15.0349 39.3114 14.8643 39.2372 14.7207L38.8195 13.886L43.0616 14.4335C43.6186 14.4784 44.0085 14.4155 44.4633 14.2001C45.7629 13.5987 46.3013 12.0908 45.6794 10.8431C45.3081 10.0891 44.6211 9.6672 43.8228 9.51461L48.5013 3.62635C48.6034 3.50069 48.622 3.33014 48.5477 3.18653L47.0811 0.224447C46.9418 -0.0538092 46.5427 -0.0986892 46.3477 0.152639L39.9334 8.24002C39.8313 8.36568 39.8127 8.53623 39.887 8.67984L40.3418 9.59539L36.5266 9.81082C36.2946 9.82877 36.0625 9.88263 35.8397 9.99034C34.8557 10.4482 34.4473 11.5881 34.9207 12.5306C35.0971 12.8986 35.3849 13.1769 35.719 13.3564Z" fill="#056CF2"/>
</g>
</svg>
