<svg width="231" height="75" viewBox="0 0 231 75" fill="none" xmlns="http://www.w3.org/2000/svg">
<g clip-path="url(#clip0_4_16)">
<mask id="mask0_4_16" style="mask-type:luminance" maskUnits="userSpaceOnUse" x="0" y="0" width="231" height="75">
<path d="M231 0H0V75H231V0Z" fill="white"/>
</mask>
<g mask="url(#mask0_4_16)">
<path d="M29.2635 49.7756C30.6713 48.7864 32.2525 48.2781 33.9961 48.2781C36.6386 48.2781 38.8479 49.4596 40.6132 51.8089L42.8008 49.1299C41.7286 47.5911 40.4291 46.4371 38.902 45.654C37.375 44.8709 35.6964 44.4861 33.8661 44.4861C31.5161 44.4861 29.3826 45.1457 27.4874 46.4646C25.5814 47.7835 24.0976 49.597 23.0147 51.9188C21.9426 54.2407 21.4011 56.8374 21.4011 59.7362C21.4011 62.6351 21.9426 65.2455 23.0147 67.5535C24.0869 69.8755 25.5705 71.689 27.4658 73.0079C29.3609 74.3268 31.4836 74.9863 33.8337 74.9863C35.6747 74.9863 37.3534 74.5879 38.8912 73.7909C40.4291 72.9941 41.7286 71.8264 42.8008 70.3013L40.6132 67.6223C38.8262 70.0128 36.6169 71.2082 33.9961 71.2082C32.2525 71.2082 30.6713 70.7135 29.2635 69.7106C27.8556 68.7214 26.751 67.3475 25.9604 65.6026C25.1698 63.8579 24.7692 61.907 24.7692 59.75C24.7692 57.5929 25.1698 55.642 25.9604 53.8973C26.7401 52.1387 27.8448 50.7649 29.2635 49.7756Z" fill="white"/>
<path d="M44.3606 48.5391H52.3964V74.6565H55.6886V48.5391H63.7461V44.8296H44.3606V48.5391Z" fill="white"/>
<path d="M70.0799 67.8421V44.8296H66.7553V74.6565H69.8525L83.7905 51.6852V74.6565H87.0828V44.8296H83.9854L70.0799 67.8421Z" fill="white"/>
<path d="M122.04 49.7756C123.449 48.7864 125.029 48.2781 126.774 48.2781C129.416 48.2781 131.626 49.4596 133.391 51.8089L135.578 49.1299C134.506 47.5911 133.206 46.4371 131.679 45.654C130.152 44.8709 128.473 44.4861 126.644 44.4861C124.293 44.4861 122.161 45.1457 120.265 46.4646C118.358 47.7835 116.875 49.597 115.792 51.9188C114.72 54.2407 114.178 56.8374 114.178 59.7362C114.178 62.6351 114.72 65.2455 115.792 67.5535C116.864 69.8755 118.348 71.689 120.243 73.0079C122.138 74.3268 124.261 74.9863 126.611 74.9863C128.452 74.9863 130.131 74.5879 131.669 73.7909C133.207 72.9941 134.506 71.8264 135.578 70.3013L133.391 67.6223C131.604 70.0128 129.394 71.2082 126.774 71.2082C125.029 71.2082 123.449 70.7135 122.04 69.7106C120.633 68.7214 119.529 67.3475 118.738 65.6026C117.948 63.8579 117.546 61.907 117.546 59.75C117.546 57.5929 117.948 55.642 118.738 53.8973C119.529 52.1387 120.633 50.7649 122.04 49.7756Z" fill="white"/>
<path d="M138.733 74.6565H142.058V48.5391H155.693V74.6565H158.985V44.8296H138.733V74.6565Z" fill="white"/>
<path d="M177.36 46.4646C175.454 45.1457 173.331 44.4861 170.97 44.4861C169.14 44.4861 167.461 44.8709 165.934 45.654C164.505 46.3959 163.26 47.4675 162.231 48.8689L164.267 51.7539C166.032 49.4322 168.219 48.2781 170.84 48.2781C172.584 48.2781 174.165 48.7726 175.573 49.7619C176.981 50.7511 178.086 52.125 178.876 53.8697C179.667 55.6146 180.067 57.5655 180.067 59.7225C180.067 61.8796 179.667 63.8303 178.876 65.589C178.086 67.3337 176.981 68.7076 175.573 69.6969C174.165 70.6861 172.584 71.1806 170.84 71.1806C168.219 71.1806 166.021 69.9992 164.234 67.6223L162.35 70.6997C163.357 72.0324 164.558 73.049 165.956 73.7773C167.494 74.5742 169.172 74.9726 171.013 74.9726C173.363 74.9726 175.486 74.313 177.381 72.9941C179.277 71.6752 180.749 69.8479 181.832 67.5399C182.904 65.2318 183.445 62.6215 183.445 59.7225C183.445 56.8236 182.904 54.2132 181.832 51.9052C180.749 49.6108 179.265 47.7972 177.36 46.4646Z" fill="white"/>
<path d="M178.739 58.0463H170.13L168.191 61.2063H176.791L178.739 58.0463Z" fill="white"/>
<path d="M203.278 38.235H193.899L191.971 41.4087H201.35L203.278 38.235Z" fill="white"/>
<path d="M189.827 67.8421V44.8296H186.502V74.6565H189.589L203.527 51.6852V74.6565H206.82V44.8296H203.733L189.827 67.8421Z" fill="white"/>
<path d="M222.194 71.2082C220.451 71.2082 218.869 70.7135 217.461 69.7107C216.054 68.7214 214.949 67.3475 214.158 65.6026C213.368 63.8579 212.967 61.907 212.967 59.75C212.967 57.593 213.368 55.642 214.158 53.8973C214.949 52.1524 216.054 50.7785 217.461 49.7894C218.869 48.8002 220.451 48.2919 222.194 48.2919C224.837 48.2919 227.046 49.4734 228.811 51.8227L230.999 49.1437C229.927 47.6049 228.627 46.4509 227.1 45.6678C225.573 44.8846 223.894 44.4999 222.065 44.4999C219.714 44.4999 217.581 45.1595 215.685 46.4783C213.779 47.7972 212.296 49.6108 211.212 51.9326C210.14 54.2545 209.599 56.8511 209.599 59.75C209.599 62.6489 210.14 65.2592 211.212 67.5673C212.284 69.8893 213.768 71.7027 215.664 73.0217C217.559 74.3406 219.681 75 222.032 75C223.873 75 225.552 74.6016 227.089 73.8047C228.627 73.0079 229.927 71.8402 230.999 70.3151L228.811 67.6361C227.024 70.0128 224.814 71.2082 222.194 71.2082Z" fill="white"/>
<path d="M99.9588 44.8296L89.4322 74.6153H92.9845L101.811 49.1299L110.626 74.6153H114.178L103.652 44.8296H99.9588Z" fill="white"/>
<path d="M37.2437 17.9978C37.2437 16.7338 37.7419 15.6072 38.5 14.9203C17.1653 15.4011 0 37.4793 0 64.6409C0 68.0481 0.270746 71.3867 0.790576 74.6016C0.519832 72.3209 0.379044 69.9852 0.379044 67.6085C0.379044 41.7796 16.8836 20.8417 37.2437 20.8417C37.6011 20.8417 37.9477 20.8691 38.2942 20.8691C37.6553 20.1822 37.2437 19.1518 37.2437 17.9978Z" fill="white"/>
<path d="M41.6722 20.4433L35.7266 30.2665C35.6075 30.4589 35.5859 30.7198 35.6725 30.9396L37.3836 35.4735C37.546 35.8994 38.0118 35.9682 38.2391 35.5834L45.7226 23.2048C45.8417 23.0124 45.8633 22.7513 45.7767 22.5315L45.2894 21.2539L50.2385 22.0919C50.8884 22.1607 51.3432 22.0644 51.8738 21.7347C53.39 20.8142 54.0182 18.5062 53.2926 16.5964C52.8595 15.4423 52.0579 14.7966 51.1266 14.5631L56.5849 5.55043C56.704 5.35809 56.7257 5.09705 56.639 4.87724L54.9279 0.343434C54.7654 -0.0824682 54.2998 -0.151162 54.0723 0.233524L46.589 12.6122C46.4698 12.8045 46.4482 13.0656 46.5348 13.2854L47.0654 14.6867L42.6144 15.0165C42.3437 15.0439 42.0729 15.1264 41.813 15.2912C40.665 15.992 40.1885 17.7367 40.7408 19.1793C40.9466 19.7426 41.2824 20.1686 41.6722 20.4433Z" fill="#056CF2"/>
</g>
</g>
<defs>
<clipPath id="clip0_4_16">
<rect width="231" height="75" fill="white"/>
</clipPath>
</defs>
</svg>
